<svg xmlns="http://www.w3.org/2000/svg" width="50" height="50" viewBox="0 0 50 50"><g transform="translate(193 523)"><path d="M50,25A25,25,0,1,0,25,50,25,25,0,0,0,50,25ZM2.273,25A22.727,22.727,0,1,1,25,47.727,22.727,22.727,0,0,1,2.273,25Z" transform="translate(-193 -523)" fill="#fff"/><path d="M50,25A25,25,0,1,0,25,50,25,25,0,0,0,50,25ZM2.273,25A22.727,22.727,0,1,1,25,47.727,22.727,22.727,0,0,1,2.273,25Z" transform="translate(-193 -523)" fill="#fff"/><path d="M50,25A25,25,0,1,0,25,50,25,25,0,0,0,50,25ZM2.273,25A22.727,22.727,0,1,1,25,47.727,22.727,22.727,0,0,1,2.273,25Z" transform="translate(-193 -523)" fill="#fff"/><path d="M50,25A25,25,0,1,0,25,50,25,25,0,0,0,50,25ZM2.273,25A22.727,22.727,0,1,1,25,47.727,22.727,22.727,0,0,1,2.273,25Z" transform="translate(-193 -523)" fill="#fff"/><path d="M231.24,162.895V146.353h4.6l.727-5.482H231.24v-2.749c0-1.43.4-2.8,2.126-2.8h3.459v-5.471h-4.911c-4.129,0-5.256,3.225-5.256,7.7v3.317h-2.833v5.484h2.833v16.542Z" transform="translate(-397.825 -644)" fill="#fff"/></g></svg>