<svg xmlns="http://www.w3.org/2000/svg" width="50" height="50" viewBox="0 0 50 50"><g transform="translate(10.684 346)"><path d="M25,0A25,25,0,1,0,50,25,25,25,0,0,0,25,0ZM39.846,39.846a20.932,20.932,0,0,1-6.675,4.5q-.952.4-1.934.708V41.309a4.9,4.9,0,0,0-2.026-4.346,21.875,21.875,0,0,0,2.332-.342,17.6,17.6,0,0,0,2.246-.635A11.127,11.127,0,0,0,35.913,35a8.856,8.856,0,0,0,1.807-1.489,8.712,8.712,0,0,0,1.453-2.075A11.376,11.376,0,0,0,40.1,28.65a17.382,17.382,0,0,0,.342-3.577,9.142,9.142,0,0,0-2.466-6.445,8.526,8.526,0,0,0-.244-6.372l-.61-.073a6.029,6.029,0,0,0-2.283.537,17.787,17.787,0,0,0-3.7,2,22.46,22.46,0,0,0-6.03-.806,22.023,22.023,0,0,0-6.006.806,20.91,20.91,0,0,0-2.454-1.453,12.631,12.631,0,0,0-1.855-.781,6.363,6.363,0,0,0-1.294-.256,4.585,4.585,0,0,0-.769-.024,1.56,1.56,0,0,0-.244.049,8.53,8.53,0,0,0-.244,6.372,9.142,9.142,0,0,0-2.466,6.445,17.389,17.389,0,0,0,.342,3.577,11.38,11.38,0,0,0,.928,2.783A8.715,8.715,0,0,0,12.5,33.508,8.862,8.862,0,0,0,14.306,35a11.133,11.133,0,0,0,2.124.989,17.6,17.6,0,0,0,2.246.635,21.879,21.879,0,0,0,2.332.342,4.887,4.887,0,0,0-2,4.346v3.82A21.009,21.009,0,0,1,16.829,5.652,21,21,0,0,1,39.846,39.846Z" transform="translate(-10.684 -346)" fill="#fff"/></g></svg>