<svg id="Group_19" data-name="Group 19" xmlns="http://www.w3.org/2000/svg" width="65.701" height="50" viewBox="0 0 65.701 50">
  <path id="Path_17" data-name="Path 17" d="M57.681,57.75H8.034A8.041,8.041,0,0,0,0,65.784V99.716a8.041,8.041,0,0,0,8.034,8.034H57.667A8.041,8.041,0,0,0,65.7,99.716V65.8A8.033,8.033,0,0,0,57.681,57.75Zm4.364,41.966a4.369,4.369,0,0,1-4.364,4.364H8.034A4.369,4.369,0,0,1,3.67,99.716V65.8a4.369,4.369,0,0,1,4.364-4.364H57.667A4.369,4.369,0,0,1,62.031,65.8V99.716Z" transform="translate(0 -57.75)" fill="#fff"/>
  <path id="Path_18" data-name="Path 18" d="M83.6,122.511,96.82,111.385a1.363,1.363,0,0,0,.112-2,1.588,1.588,0,0,0-2.136-.1L76.568,124.632l-3.556-2.981c-.011-.01-.022-.021-.022-.031a2.2,2.2,0,0,0-.246-.2l-14.47-12.155a1.577,1.577,0,0,0-2.136.115,1.356,1.356,0,0,0,.123,2l13.374,11.221-13.318,11.7a1.362,1.362,0,0,0-.067,2,1.594,1.594,0,0,0,1.107.451,1.569,1.569,0,0,0,1.029-.378l13.52-11.872,3.668,3.076a1.58,1.58,0,0,0,2.013-.01l3.769-3.17L94.8,136.4a1.584,1.584,0,0,0,2.136-.052,1.362,1.362,0,0,0-.056-2Z" transform="translate(-43.682 -97.828)" fill="#fff"/>
</svg>
