<svg xmlns="http://www.w3.org/2000/svg" width="50" height="50" viewBox="0 0 50 50"><g transform="translate(211 -203.737)"><path d="M217,212a5,5,0,1,1-5-5A5,5,0,0,1,217,212Zm0,0" transform="translate(-398.508 16.183)" fill="#fff"/><path d="M154.994,138.295a4.039,4.039,0,0,0-2.315-2.315,6.748,6.748,0,0,0-2.265-.42c-1.286-.059-1.672-.071-4.929-.071s-3.643.012-4.929.071a6.753,6.753,0,0,0-2.265.42,4.041,4.041,0,0,0-2.315,2.315,6.752,6.752,0,0,0-.42,2.265c-.059,1.286-.071,1.672-.071,4.929s.013,3.643.071,4.929a6.749,6.749,0,0,0,.42,2.265A4.039,4.039,0,0,0,138.291,155a6.74,6.74,0,0,0,2.265.42c1.286.059,1.672.071,4.929.071s3.643-.012,4.929-.071a6.74,6.74,0,0,0,2.265-.42,4.039,4.039,0,0,0,2.315-2.315,6.755,6.755,0,0,0,.42-2.265c.059-1.286.071-1.672.071-4.929s-.012-3.643-.071-4.929A6.74,6.74,0,0,0,154.994,138.295Zm-9.509,13.457a6.264,6.264,0,1,1,6.264-6.264A6.264,6.264,0,0,1,145.485,151.752ZM152,140.441a1.464,1.464,0,1,1,1.464-1.464A1.464,1.464,0,0,1,152,140.441Zm0,0" transform="translate(-331.969 82.782)" fill="#fff"/><path d="M25,0A25,25,0,1,0,50,25,25,25,0,0,0,25,0ZM39.269,30.918A10.532,10.532,0,0,1,38.6,34.4a7.34,7.34,0,0,1-4.2,4.2,10.539,10.539,0,0,1-3.484.667c-1.531.07-2.02.087-5.919.087s-4.388-.017-5.919-.087A10.539,10.539,0,0,1,15.6,38.6a7.34,7.34,0,0,1-4.2-4.2,10.53,10.53,0,0,1-.667-3.484c-.071-1.531-.087-2.02-.087-5.919s.016-4.388.087-5.919A10.533,10.533,0,0,1,11.4,15.6a7.345,7.345,0,0,1,4.2-4.2,10.542,10.542,0,0,1,3.485-.667c1.531-.07,2.02-.087,5.919-.087s4.388.017,5.919.087A10.544,10.544,0,0,1,34.4,11.4a7.342,7.342,0,0,1,4.2,4.2,10.531,10.531,0,0,1,.668,3.485c.07,1.531.086,2.02.086,5.919S39.339,29.388,39.269,30.918Zm0,0" transform="translate(-211 203.737)" fill="#fff"/></g></svg>