<svg xmlns="http://www.w3.org/2000/svg" width="50" height="50" viewBox="0 0 50 50"><path d="M194.932,142.544c0-6.771-5.619-13.078-14.155-13.078-10.626,0-15.981,7.777-15.981,14.263,0,3.927,1.454,7.421,4.58,8.721a.768.768,0,0,0,1.119-.57c.1-.4.347-1.413.454-1.831a1.123,1.123,0,0,0-.321-1.273,6.674,6.674,0,0,1-1.475-4.479,10.7,10.7,0,0,1,11.009-10.932c6,0,9.305,3.746,9.305,8.747,0,6.584-2.852,12.137-7.091,12.137a3.511,3.511,0,0,1-3.529-4.4c.671-2.891,1.974-6.014,1.974-8.1,0-1.867-.983-3.428-3.016-3.428-2.392,0-4.313,2.526-4.313,5.91a8.91,8.91,0,0,0,.715,3.612s-2.449,10.588-2.876,12.44a20.364,20.364,0,0,0-.395,5.111c.163,1.407,1.526,2.553,2.707,1.009a19.138,19.138,0,0,0,2.188-4.785c.276-1.015,1.573-6.275,1.573-6.275a6.376,6.376,0,0,0,5.465,2.847C190.055,158.19,194.932,151.5,194.932,142.544Z" transform="translate(-155 -123.571)" fill="#fff"/><path d="M50,25A25,25,0,1,0,25,50,25,25,0,0,0,50,25ZM2.273,25A22.727,22.727,0,1,1,25,47.727,22.727,22.727,0,0,1,2.273,25Z" fill="#fff"/></svg>