<svg xmlns="http://www.w3.org/2000/svg" width="50" height="50" viewBox="0 0 50 50"><g transform="translate(0 -458.474)"><path d="M25,0A25,25,0,1,0,50,25,25,25,0,0,0,25,0Zm0,46.094A21.094,21.094,0,1,1,46.094,25,21.093,21.093,0,0,1,25,46.094Z" transform="translate(0 458.474)" fill="#fff"/><g transform="translate(-117 339.793)"><g transform="translate(128.094 127.891)"><path d="M128.094,152.4h3.986V134.017h-3.986Zm15.946-18.379c-3.413.066-5.092,2.933-5.315,3.063v-3.063h-3.986V152.4h3.986V141.675c0-.393.841-3.542,3.986-3.063,1.69.127,2.6,2.7,2.658,3.063V152.4l3.971.021V139.693C149.2,137.857,148.4,134.083,144.04,134.017Zm-13.952-6.126a2.321,2.321,0,1,0,1.993,2.3A2.161,2.161,0,0,0,130.087,127.891Z" transform="translate(-124.117 -125.891)" fill="#fff"/></g></g></g></svg>