<svg xmlns="http://www.w3.org/2000/svg" width="50" height="50" viewBox="0 0 50 50"><path d="M168.612,172.189c0-.285-.005-.568-.018-.848a12.846,12.846,0,0,0,3.119-3.353,11.974,11.974,0,0,1-3.589.982,6.414,6.414,0,0,0,2.748-3.589,12,12,0,0,1-3.967,1.53,6.217,6.217,0,0,0-4.561-2.152,6.313,6.313,0,0,0-6.248,6.512,6.945,6.945,0,0,0,.162,1.509,17.6,17.6,0,0,1-12.881-7.117,7.009,7.009,0,0,0,1.933,8.927,5.981,5.981,0,0,1-2.831-.866v.085a6.637,6.637,0,0,0,5.013,6.577,5.918,5.918,0,0,1-1.645.224,5.706,5.706,0,0,1-1.175-.129,6.351,6.351,0,0,0,5.836,4.651,12.06,12.06,0,0,1-7.759,2.826,11.9,11.9,0,0,1-1.491-.1,16.857,16.857,0,0,0,9.58,3C162.329,190.868,168.612,180.867,168.612,172.189Z" transform="translate(-131 -152.633)" fill="#fff"/><path d="M50,25A25,25,0,1,0,25,50,25,25,0,0,0,50,25ZM2.273,25A22.727,22.727,0,1,1,25,47.727,22.727,22.727,0,0,1,2.273,25Z" fill="#fff"/></svg>